<svg width="339" height="148" viewBox="0 0 339 148" fill="none" xmlns="http://www.w3.org/2000/svg">
  <rect width="339" height="148" fill="white"/>
  <g transform="translate(2 2)">
    <path d="M28.4512 1.49496C37.5784 1.25145 44.6761 3.83236 49.7444 9.23769C54.1201 13.9033 56.308 19.3086 56.308 25.4537C56.308 33.5437 52.8637 40.1458 45.9751 45.2602C40.9068 49.0045 35.2919 50.9977 29.1306 51.2392C30.5549 42.4168 28.8582 34.2601 24.0407 26.7692C19.0074 18.9209 11.5325 13.3514 1.61621 10.0606C7.2719 4.36295 16.217 1.50773 28.4512 1.49496Z" fill="#FF5A20"/>
    <path d="M22.6214 15.3371C31.6128 17.3446 38.1615 21.4335 42.2677 27.6038C45.7969 32.9098 47.2502 39.0428 46.6275 45.9926C45.9963 53.0455 43.0582 58.9536 37.8132 63.7169C33.978 67.2062 29.3793 69.5634 24.0172 70.7884C24.6558 62.4181 22.601 54.8496 17.8528 48.0828C14.3657 43.1058 9.61323 39.1624 3.59527 36.2528C5.09065 30.3136 8.60499 25.3054 14.1383 21.2282C16.9023 19.191 19.73 17.2273 22.6214 15.3371Z" fill="#FF4A13"/>
    <path d="M28.7416 20.6429C34.1777 24.5708 37.818 29.6338 39.6624 35.8318C41.6389 42.483 40.7023 48.8214 36.8525 54.847C33.6599 59.8454 29.3461 63.2126 23.9119 64.9487C25.4451 58.5061 24.788 52.0721 21.9407 45.6467C18.8621 38.6944 13.4647 33.0908 5.74852 28.8357C8.14879 24.4718 11.9679 21.7392 17.2057 20.6379C20.7706 19.888 24.6159 19.8896 28.7416 20.6429Z" fill="#FFFFFF"/>
    <path d="M31.5181 31.6438C36.3254 37.6967 38.4725 44.3418 37.9592 51.579C37.4062 59.3759 34.3467 65.8171 28.7805 70.9027C25.824 73.6033 22.42 75.5773 18.5686 76.8245C19.9235 70.1641 19.5023 63.9473 17.3049 58.1741C14.6138 51.1036 9.77325 45.2656 2.78326 40.66C3.60495 38.3711 5.00322 36.1113 6.97808 33.8807C11.8825 28.3406 20.0625 27.595 31.5181 31.6438Z" fill="#E61E16"/>
    <path d="M7.84961 48.4557H34.2844L42.9168 50.9725L41.7754 54.5854H0L1.34774 50.4584L7.84961 48.4557Z" fill="#362217"/>
    <path d="M11.8662 54.1357H30.3994L31.8553 58.5658H10.2991L11.8662 54.1357Z" fill="#5B412E"/>
    <path d="M14.0305 59.2089H28.3611L30.997 131.164H11.4775L14.0305 59.2089Z" fill="#3B2418"/>
    <path d="M16.2735 66.7098H25.9447L26.3818 78.2938H15.8615L16.2735 66.7098Z" fill="#6A4A38"/>
    <path d="M17.0433 89.3623H25.1104L25.4335 99.4742H16.6892L17.0433 89.3623Z" fill="#6A4A38"/>
    <path d="M19.5828 130.025H22.4831L22.6527 138.932H19.3993L19.5828 130.025Z" fill="#6A4A38"/>
    <path d="M14.3311 130.361H27.7154C30.3173 130.361 32.7802 131.123 35.1042 132.647C37.4302 134.171 38.9285 136.133 39.5993 138.531H2.4577C3.47387 134.812 5.76958 132.355 9.34485 131.159C10.8163 130.626 12.4784 130.36 14.3311 130.361Z" fill="#2A1711"/>
    <path d="M4.04834 138.532H38.1714V143.102H0.374512L4.04834 138.532Z" fill="#1D0F0A"/>
  </g>
  <text x="58" y="41"
        font-family="Arial, Helvetica, sans-serif"
        font-size="24"
        font-weight="700"
        textLength="116"
        lengthAdjust="spacingAndGlyphs"
        fill="#2B170D">sekolah</text>
  <text x="56" y="89"
        font-family="Arial Black, Impact, Arial, Helvetica, sans-serif"
        font-size="58"
        font-weight="900"
        textLength="280"
        lengthAdjust="spacingAndGlyphs"
        fill="#FF8618"
        stroke="#2B170D"
        stroke-width="2.4"
        paint-order="stroke fill">PERMATA</text>
  <text x="56" y="142"
        font-family="Arial Black, Impact, Arial, Helvetica, sans-serif"
        font-size="58"
        font-weight="900"
        textLength="280"
        lengthAdjust="spacingAndGlyphs"
        fill="#FF8618"
        stroke="#2B170D"
        stroke-width="2.4"
        paint-order="stroke fill">HARAPAN</text>
</svg>
